# xmcd
#
# Track frame offsets:
#	182
#	13757
#	25757
#	38432
#	53457
#	69007
#	83132
#	100232
#	115150
#	130907
#	141997
#	157007
#	171762
#	185647
#
# Disc length: 2628
#
# Revision: 3
# Processed by: cddbd v1.5.1PL0 Copyright (c) Steve Scherf et al.
# Submitted via: CDValet v3.31 - Copyright (c) 1997 Greg Leichner
# Normalized: r1:DSETVAR1,TDELIM( - ),TSWAP
#
DISCID=ad0a420e
DTITLE=Various Artist - A Touch Of Nostalgia
DYEAR=1900
DGENRE=
TTITLE0=The Andrew Sisters - Rum and Coca Cola
TTITLE1=The Ink Spots - Wispering Grass
TTITLE2=Judy Garland - Over The Rainbow
TTITLE3=Louis Armstrong - Ain't Misbehavin'
TTITLE4=Marlene Dietrich - Lil Marlene
TTITLE5=Fred Astaire - Cheek To Cheek
TTITLE6=Lena Horne - Stormy Weather
TTITLE7=Glen Miller - Pennsylvania Six Five Thousand
TTITLE8=Edith Piaf - La Vie En Rose
TTITLE9=Eddie Cantor - Harin' Whoopee
TTITLE10=Billie Holiday - These Foolish Things
TTITLE11=Vera Lynn - The White Cliffs Of Dova
TTITLE12=Boswell Sisters - Shine On Harvest Moon
TTITLE13=Al Jolson - I'm Sitting On Top Of The World
EXTD=
EXTT0=
EXTT1=
EXTT2=
EXTT3=
EXTT4=
EXTT5=
EXTT6=
EXTT7=
EXTT8=
EXTT9=
EXTT10=
EXTT11=
EXTT12=
EXTT13=
PLAYORDER=
